HIERARCHY
ROOT root
{
	OFFSET 0.00 0.00 0.00
	CHANNELS 6 Xposition Yposition Zposition Zrotation Xrotation Yrotation
	JOINT lowerback
	{
		OFFSET 0 0 0
		CHANNELS 6 Xposition Yposition Zposition Zrotation Xrotation Yrotation
		JOINT upperback
		{
			OFFSET -0.214371 12.3768 -1.12219
			CHANNELS 6 Xposition Yposition Zposition Zrotation Xrotation Yrotation
			JOINT thorax
			{
				OFFSET -0.00137213 12.3873 0.296195
				CHANNELS 6 Xposition Yposition Zposition Zrotation Xrotation Yrotation
				JOINT lowerneck
				{
					OFFSET 0.0883157 12.5016 0.82912
					CHANNELS 6 Xposition Yposition Zposition Zrotation Xrotation Yrotation
					JOINT upperneck
					{
						OFFSET -1 10.1794 0.943522
						CHANNELS 6 Xposition Yposition Zposition Zrotation Xrotation Yrotation
						JOINT head
						{
							OFFSET 0.667525 10.2797 -1.57149
							CHANNELS 6 Xposition Yposition Zposition Zrotation Xrotation Yrotation
							End Site
							{
								OFFSET 0 0 0
							}
						}
					}
				}
				JOINT lclavicle
				{
					OFFSET 0.0883157 12.5016 0.82912
					CHANNELS 6 Xposition Yposition Zposition Zrotation Xrotation Yrotation
					JOINT lhumerus
					{
						OFFSET 20.61 4.45006 1.43784
						CHANNELS 6 Xposition Yposition Zposition Zrotation Xrotation Yrotation
						JOINT lradius
						{
							OFFSET 0 -30.3438 0
							CHANNELS 6 Xposition Yposition Zposition Zrotation Xrotation Yrotation
							JOINT lwrist
							{
								OFFSET 0 -18.964 0
								CHANNELS 6 Xposition Yposition Zposition Zrotation Xrotation Yrotation
								JOINT lhand
								{
									OFFSET 0 -9.48199 0
									CHANNELS 6 Xposition Yposition Zposition Zrotation Xrotation Yrotation
									JOINT lfingers
									{
										OFFSET 0 -3.17138 0
										CHANNELS 6 Xposition Yposition Zposition Zrotation Xrotation Yrotation
										End Site
										{
											OFFSET 0 -2.55685 0
										}
									}
								}
								JOINT lthumb
								{
									OFFSET 0 -9.48199 0
									CHANNELS 6 Xposition Yposition Zposition Zrotation Xrotation Yrotation
									End Site
									{
										OFFSET 0 -3.67114 0
									}
								}
							}
						}
					}
				}
				JOINT rclavicle
				{
					OFFSET 0.0883157 12.5016 0.82912
					CHANNELS 6 Xposition Yposition Zposition Zrotation Xrotation Yrotation
					JOINT rhumerus
					{
						OFFSET -20.61 4.45 1.44
						CHANNELS 6 Xposition Yposition Zposition Zrotation Xrotation Yrotation
						JOINT rradius
						{
							OFFSET 0 -29.5102 0
							CHANNELS 6 Xposition Yposition Zposition Zrotation Xrotation Yrotation
							JOINT rwrist
							{
								OFFSET 0 -19.2342 0
								CHANNELS 6 Xposition Yposition Zposition Zrotation Xrotation Yrotation
								JOINT rhand
								{
									OFFSET 0 -9.61712 0
									CHANNELS 6 Xposition Yposition Zposition Zrotation Xrotation Yrotation
									JOINT rfingers
									{
										OFFSET 0 -3.29215 0
										CHANNELS 6 Xposition Yposition Zposition Zrotation Xrotation Yrotation
										End Site
										{
											OFFSET 0 -2.557 0
										}
									}
								}
								JOINT rthumb
								{
									OFFSET 0 -9.61712 0
									CHANNELS 6 Xposition Yposition Zposition Zrotation Xrotation Yrotation
									End Site
									{
										OFFSET 0 -3.671 0
									}
								}
							}
						}
					}
				}
			}
		}
	}
	JOINT rfemur
	{
		OFFSET -8.46272 -9.62775 4.76248
		CHANNELS 6 Xposition Yposition Zposition Zrotation Xrotation Yrotation
		JOINT rtibia
		{
			OFFSET 1.00552e-005 -38.0331 0
			CHANNELS 6 Xposition Yposition Zposition Zrotation Xrotation Yrotation
			JOINT rfoot
			{
				OFFSET 1.14428e-005 -43.2815 0
				CHANNELS 6 Xposition Yposition Zposition Zrotation Xrotation Yrotation
				JOINT rtoes
				{
					OFFSET 0 -14.1868 -3.08763
					CHANNELS 6 Xposition Yposition Zposition Zrotation Xrotation Yrotation
					End Site
					{
						OFFSET 0 -7.27332 0
					}
				}
			}
		}
	}
	JOINT lfemur
	{
		OFFSET 9.10607 -9.62778 4.76249
		CHANNELS 6 Xposition Yposition Zposition Zrotation Xrotation Yrotation
		JOINT ltibia
		{
			OFFSET -1.01399e-005 -38.3535 0
			CHANNELS 6 Xposition Yposition Zposition Zrotation Xrotation Yrotation
			JOINT lfoot
			{
				OFFSET -1.12937e-005 -42.7176 0
				CHANNELS 6 Xposition Yposition Zposition Zrotation Xrotation Yrotation
				JOINT ltoes
				{
					OFFSET 0 -13.9965 -2.83857
					CHANNELS 6 Xposition Yposition Zposition Zrotation Xrotation Yrotation
					End Site
					{
						OFFSET 0 -7.16348 0
					}
				}
			}
		}
	}
}
MOTION
Frames: 6
Frame Time: 0.00833333
3.54247	96.104	71.1189	3.01818	-7.92749	-1.03697	0 0 0 -3.51923	11.4438	-0.915462	-0.214371 12.3768 -1.12219 -2.11855	-0.151083	-1.8885	-0.00137213 12.3873 0.296195 0.0817795	-6.54447	-0.86445	0.0883157 12.5016 0.82912 -2.88367	-7.09268	-1.48978	-1 10.1794 0.943522 9.89686	-2.89725	-1.94417	0.667525 10.2797 -1.57149 3.68052	0.460844	-0.936043	0.0883157 12.5016 0.82912 -15	0	-0	20.61 4.45006 1.43784 21.5656	3.75325	179.949	0 -30.3438 0 180	63.0859	-180	0 -18.964 0 -7.46269e-015	2.04499e-014	-44.2922	0 -9.48199 0 1.22245	4.37968	-2.58917e-014	0 -3.17138 0 -0	7.12502	-0	0 -9.48199 0 25	15	-1.36605e-015	0.0883157 12.5016 0.82912 15	0	-0	-20.61 4.45 1.44 -33.209	20.356	-166.024	0 -29.5102 0 -0	68.4944	-0	0 -19.2342 0 9.68733e-016	-3.55755e-015	120.465	0 -9.61712 0 1.22	4.38	-0	0 -3.29215 0 -0	7.12502	-0	0 -9.61712 0 25	15	-7.97034e-015	-8.46272 -9.62775 4.76248 -71.4573	-47.077	-73.2078	1.00552e-005 -38.0331 0 -180	33.2462	180	1.14428e-005 -43.2815 0 41.0074	-64.1235	44.0212	0 -14.1868 -3.08763 -0	-67.2576	-0	9.10607 -9.62778 4.76249 -10.0214	14.767	8.34089	-1.01399e-005 -38.3535 0 -0	-1.26635	-0	-1.12937e-005 -42.7176 0 0.248452	-72.1839	0.260688	0 -13.9965 -2.83857 -0	-44.9689	-0
3.55742	96.1763	71.9293	3.11564	-7.92302	-0.694732	0 0 0 -3.5524	11.3872	-1.02662	-0.214371 12.3768 -1.12219 -2.13315	-0.198811	-2.0364	-0.00137213 12.3873 0.296195 0.114428	-6.55929	-0.935048	0.0883157 12.5016 0.82912 -2.91644	-7.0594	-1.51834	-1 10.1794 0.943522 9.89045	-2.77702	-1.98583	0.667525 10.2797 -1.57149 3.68207	0.49711	-0.953085	0.0883157 12.5016 0.82912 -15	0	-0	20.61 4.45006 1.43784 21.5077	3.85157	179.855	0 -30.3438 0 180	63.0685	-180	0 -18.964 0 -7.44425e-015	2.04319e-014	-44.3439	0 -9.48199 0 1.22245	4.37968	-2.58917e-014	0 -3.17138 0 -0	7.12502	-0	0 -9.48199 0 25	15	-1.36605e-015	0.0883157 12.5016 0.82912 15	0	-0	-20.61 4.45 1.44 -33.3106	20.5331	-166.147	0 -29.5102 0 -0	68.4217	-0	0 -19.2342 0 9.73894e-016	-3.56631e-015	120.548	0 -9.61712 0 1.22	4.38	-0	0 -3.29215 0 -0	7.12502	-0	0 -9.61712 0 25	15	-7.97034e-015	-8.46272 -9.62775 4.76248 -73.58	-46.8829	-75.0612	1.00552e-005 -38.0331 0 -180	32.5211	180	1.14428e-005 -43.2815 0 42.4754	-64.5764	45.39	0 -14.1868 -3.08763 -0	-67.1756	-0	9.10607 -9.62778 4.76249 -10.0802	15.2061	8.31207	-1.01399e-005 -38.3535 0 -0	-1.10394	-0	-1.12937e-005 -42.7176 0 0.364851	-72.656	0.381952	0 -13.9965 -2.83857 -0	-45.2628	-0
3.56845	96.2254	72.7335	3.21006	-7.91471	-0.383576	0 0 0 -3.59404	11.3358	-1.12474	-0.214371 12.3768 -1.12219 -2.14852	-0.250184	-2.16873	-0.00137213 12.3873 0.296195 0.148029	-6.58078	-0.997539	0.0883157 12.5016 0.82912 -2.95433	-7.01951	-1.55021	-1 10.1794 0.943522 9.8894	-2.66458	-2.03115	0.667525 10.2797 -1.57149 3.68734	0.530119	-0.972326	0.0883157 12.5016 0.82912 -15	0	-0	20.61 4.45006 1.43784 21.4513	3.93767	179.769	0 -30.3438 0 180	63.0512	-180	0 -18.964 0 -7.4266e-015	2.04146e-014	-44.3934	0 -9.48199 0 1.22245	4.37968	-2.58917e-014	0 -3.17138 0 -0	7.12502	-0	0 -9.48199 0 25	15	-1.36605e-015	0.0883157 12.5016 0.82912 15	0	-0	-20.61 4.45 1.44 -33.4073	20.6807	-166.262	0 -29.5102 0 -0	68.3488	-0	0 -19.2342 0 9.78879e-016	-3.57475e-015	120.628	0 -9.61712 0 1.22	4.38	-0	0 -3.29215 0 -0	7.12502	-0	0 -9.61712 0 25	15	-7.97034e-015	-8.46272 -9.62775 4.76248 -74.9344	-47.3126	-76.244	1.00552e-005 -38.0331 0 -180	32.245	180	1.14428e-005 -43.2815 0 43.3072	-65.2102	46.0753	0 -14.1868 -3.08763 -0	-67.0085	-0	9.10607 -9.62778 4.76249 -10.1307	15.5896	8.3168	-1.01399e-005 -38.3535 0 -0	-0.853402	-0	-1.12937e-005 -42.7176 0 0.397822	-73.1503	0.415389	0 -13.9965 -2.83857 -0	-45.5142	-0
3.56957	96.2502	73.5311	3.30753	-7.89951	-0.11161	0 0 0 -3.6511	11.2874	-1.20742	-0.214371 12.3768 -1.12219 -2.16684	-0.304825	-2.28368	-0.00137213 12.3873 0.296195 0.18373	-6.60711	-1.05089	0.0883157 12.5016 0.82912 -2.9953	-6.97468	-1.58326	-1 10.1794 0.943522 9.89273	-2.56244	-2.07736	0.667525 10.2797 -1.57149 3.69479	0.559112	-0.992452	0.0883157 12.5016 0.82912 -15	0	-0	20.61 4.45006 1.43784 21.3973	4.01377	179.694	0 -30.3438 0 180	63.0364	-180	0 -18.964 0 -7.41068e-015	2.0399e-014	-44.4381	0 -9.48199 0 1.22245	4.37968	-2.58917e-014	0 -3.17138 0 -0	7.12502	-0	0 -9.48199 0 25	15	-1.36605e-015	0.0883157 12.5016 0.82912 15	0	-0	-20.61 4.45 1.44 -33.4967	20.7966	-166.367	0 -29.5102 0 -0	68.2793	-0	0 -19.2342 0 9.83501e-016	-3.58254e-015	120.702	0 -9.61712 0 1.22	4.38	-0	0 -3.29215 0 -0	7.12502	-0	0 -9.61712 0 25	15	-7.97034e-015	-8.46272 -9.62775 4.76248 -75.5709	-48.4161	-76.8144	1.00552e-005 -38.0331 0 -180	32.4208	180	1.14428e-005 -43.2815 0 43.5227	-66.0156	46.1085	0 -14.1868 -3.08763 -0	-66.8082	-0	9.10607 -9.62778 4.76249 -10.1873	15.946	8.35957	-1.01399e-005 -38.3535 0 -0	-0.574609	-0	-1.12937e-005 -42.7176 0 0.350224	-73.646	0.364714	0 -13.9965 -2.83857 -0	-45.7371	-0
3.5588	96.2502	74.3199	3.41479	-7.87464	0.117238	0 0 0 -3.73081	11.2394	-1.27353	-0.214371 12.3768 -1.12219 -2.19031	-0.362197	-2.38101	-0.00137213 12.3873 0.296195 0.223077	-6.63609	-1.09485	0.0883157 12.5016 0.82912 -3.03723	-6.92599	-1.61552	-1 10.1794 0.943522 9.89936	-2.47351	-2.12182	0.667525 10.2797 -1.57149 3.7037	0.583105	-1.01225	0.0883157 12.5016 0.82912 -15	0	-0	20.61 4.45006 1.43784 21.347	4.08205	179.63	0 -30.3438 0 180	63.0257	-180	0 -18.964 0 -7.3968e-015	2.03854e-014	-44.4771	0 -9.48199 0 1.22245	4.37968	-2.58917e-014	0 -3.17138 0 -0	7.12502	-0	0 -9.48199 0 25	15	-1.36605e-015	0.0883157 12.5016 0.82912 15	0	-0	-20.61 4.45 1.44 -33.5769	20.8803	-166.463	0 -29.5102 0 -0	68.2177	-0	0 -19.2342 0 9.87444e-016	-3.58917e-015	120.765	0 -9.61712 0 1.22	4.38	-0	0 -3.29215 0 -0	7.12502	-0	0 -9.61712 0 25	15	-7.97034e-015	-8.46272 -9.62775 4.76248 -75.5179	-50.1735	-76.7934	1.00552e-005 -38.0331 0 -180	33.0421	180	1.14428e-005 -43.2815 0 43.1512	-66.9629	45.5306	0 -14.1868 -3.08763 -0	-66.6208	-0	9.10607 -9.62778 4.76249 -10.2602	16.2961	8.4419	-1.01399e-005 -38.3535 0 -0	-0.312825	-0	-1.12937e-005 -42.7176 0 0.226915	-74.1258	0.235636	0 -13.9965 -2.83857 -0	-45.9409	-0
3.53733	96.2237	75.1	3.53844	-7.83787	0.303189	0 0 0 -3.8396	11.1893	-1.3232	-0.214371 12.3768 -1.12219 -2.22092	-0.421517	-2.46187	-0.00137213 12.3873 0.296195 0.26764	-6.66525	-1.12988	0.0883157 12.5016 0.82912 -3.07809	-6.87398	-1.64528	-1 10.1794 0.943522 9.90822	-2.40081	-2.16224	0.667525 10.2797 -1.57149 3.71337	0.601006	-1.03068	0.0883157 12.5016 0.82912 -15	0	-0	20.61 4.45006 1.43784 21.302	4.14434	179.576	0 -30.3438 0 180	63.0205	-180	0 -18.964 0 -7.38485e-015	2.03736e-014	-44.5107	0 -9.48199 0 1.22245	4.37968	-2.58917e-014	0 -3.17138 0 -0	7.12502	-0	0 -9.48199 0 25	15	-1.36605e-015	0.0883157 12.5016 0.82912 15	0	-0	-20.61 4.45 1.44 -33.6466	20.933	-166.548	0 -29.5102 0 -0	68.1684	-0	0 -19.2342 0 9.90578e-016	-3.59443e-015	120.815	0 -9.61712 0 1.22	4.38	-0	0 -3.29215 0 -0	7.12502	-0	0 -9.61712 0 25	15	-7.97034e-015	-8.46272 -9.62775 4.76248 -74.7715	-52.4999	-76.1554	1.00552e-005 -38.0331 0 -180	34.0948	180	1.14428e-005 -43.2815 0 42.2362	-68.0074	44.3962	0 -14.1868 -3.08763 -0	-66.4847	-0	9.10607 -9.62778 4.76249 -10.3598	16.6526	8.56245	-1.01399e-005 -38.3535 0 -0	-0.0969763	-0	-1.12937e-005 -42.7176 0 0.0359577	-74.5761	0.0370258	0 -13.9965 -2.83857 -0	-46.1292	-0
